<?xml version="1.0" encoding="utf-8"?>
<!-- Generator: Adobe Illustrator 16.0.0, SVG Export Plug-In . SVG Version: 6.00 Build 0)  -->
<!DOCTYPE svg PUBLIC "-//W3C//DTD SVG 1.1//EN" "http://www.w3.org/Graphics/SVG/1.1/DTD/svg11.dtd">
<svg version="1.1" xmlns="http://www.w3.org/2000/svg" xmlns:xlink="http://www.w3.org/1999/xlink" x="0px" y="0px" width="639px"
	 height="213px" viewBox="0 0 639 213" enable-background="new 0 0 639 213" xml:space="preserve">
<g id="Layer_1">
	<polygon fill="#4A4A4A" points="72.867,11.854 86.116,7.674 86.116,43.466 72.867,46.306 	"/>
	<polygon fill="#6B6B6B" points="93.786,9.68 86.116,7.681 86.116,43.484 93.786,44.839 	"/>
	<polygon fill="#4A4A4A" points="50.455,25.53 54.665,24.292 54.665,53.016 50.455,53.912 	"/>
	<polygon fill="#6B6B6B" points="57.105,24.733 54.665,24.136 54.665,53.016 57.105,53.446 	"/>
	<polygon fill="#4A4A4A" points="133.134,20.126 133.134,202.221 3.723,168.887 3.723,161.757 14.407,161.757 14.481,60.855 
		3.723,60.743 3.723,53.646 87.158,31.479 	"/>
	<polygon display="none" fill="#792525" points="86.502,10.351 72.27,10.351 72.195,38.853 54.19,40.198 54.302,24.709 
		50.566,24.709 50.455,43.187 86.577,43.636 	"/>
	<polygon fill="#C8C8C8" points="270.353,60.724 270.476,161.757 277.574,161.757 277.574,168.998 219.711,183.156 219.829,140.608 
		219.786,136.313 190.91,136.35 190.947,190.328 133.126,202.212 133.126,20.133 191.059,32.135 191.208,78.895 219.998,78.844 
		219.998,39.199 277.574,53.745 277.574,60.768 	"/>
	<polygon fill="#4A4A4A" points="219.897,39.352 191.01,43.634 191.01,79.098 219.897,79.098 	"/>
	<polygon fill="#4A4A4A" points="219.897,183.343 191.01,179.01 191.01,136.574 219.897,136.574 	"/>
	<path fill="#F3EFC0" d="M122.633,181.183c0,1.282-0.644,2.184-1.438,2.016l-18.913-4.019c-0.703-0.149-1.271-1.244-1.271-2.444
		v-13.032c0-1.2,0.569-2.082,1.271-1.971l18.913,2.993c0.793,0.126,1.438,1.266,1.438,2.548V181.183z"/>
	<path fill="#F3EFC0" d="M122.633,150.563c0,1.28-0.644,2.239-1.438,2.144l-18.913-2.333c-0.703-0.086-1.271-1.127-1.271-2.327
		V135.01c0-1.2,0.569-2.131,1.271-2.083l18.913,1.307c0.793,0.056,1.438,1.14,1.438,2.419V150.563z"/>
	<path fill="#F3EFC0" d="M122.633,119.708c0,1.279-0.644,2.297-1.438,2.269l-18.913-0.63c-0.703-0.023-1.271-1.014-1.271-2.213
		V106.1c0-1.202,0.569-2.186,1.271-2.2l18.913-0.391c0.793-0.017,1.438,1.007,1.438,2.289V119.708z"/>
	<path fill="#F3EFC0" d="M122.487,88.455c0,1.279-0.643,2.354-1.435,2.4l-18.898,1.09c-0.703,0.041-1.27-0.899-1.27-2.098v-13.03
		c0-1.199,0.567-2.234,1.27-2.313l18.898-2.111c0.792-0.089,1.435,0.876,1.435,2.157V88.455z"/>
	<path fill="#F3EFC0" d="M122.487,58.111c0,1.279-0.643,2.411-1.435,2.527l-18.898,2.761c-0.703,0.103-1.27-0.787-1.27-1.986v-13.03
		c0-1.199,0.567-2.284,1.27-2.426l18.898-3.783c0.792-0.158,1.435,0.751,1.435,2.03V58.111z"/>
	<path fill="#F3EFC0" d="M32.149,72.533c0,0.942-0.35,1.757-0.78,1.82l-8.995,1.292c-0.399,0.057-0.722-0.63-0.722-1.533v-8.183
		c0-0.904,0.322-1.698,0.722-1.774l8.995-1.719c0.43-0.082,0.78,0.617,0.78,1.56V72.533z"/>
	<path fill="#F3EFC0" d="M32.149,95.137c0,0.942-0.35,1.725-0.78,1.75l-8.995,0.488c-0.399,0.022-0.722-0.693-0.722-1.597v-8.183
		c0-0.903,0.322-1.669,0.722-1.71l8.995-0.914c0.43-0.043,0.78,0.687,0.78,1.628V95.137z"/>
	<path fill="#F3EFC0" d="M32.149,117.74c0,0.943-0.35,1.695-0.78,1.682l-8.995-0.315c-0.399-0.014-0.722-0.759-0.722-1.663v-8.183
		c0-0.904,0.322-1.641,0.722-1.646l8.995-0.11c0.43-0.004,0.78,0.754,0.78,1.698V117.74z"/>
	<path fill="#F3EFC0" d="M32.149,140.268c0,0.943-0.35,1.662-0.78,1.611l-8.995-1.119c-0.399-0.049-0.722-0.822-0.722-1.725v-8.183
		c0-0.904,0.322-1.614,0.722-1.581l8.995,0.691c0.43,0.032,0.78,0.826,0.78,1.768V140.268z"/>
	<path fill="#F3EFC0" d="M32.149,162.872c0,0.943-0.35,1.632-0.78,1.541l-8.995-1.922c-0.399-0.086-0.722-0.887-0.722-1.79v-8.184
		c0-0.903,0.322-1.583,0.722-1.515l8.995,1.493c0.43,0.073,0.78,0.895,0.78,1.838V162.872z"/>
</g>
<g id="Layer_2">
	<g>
		<path fill="#4A4A4A" d="M350.342,113.874V40.221h10.374v29.374l27.409-29.374h13.212l-32.868,34.535l35.98,39.118H390.69
			l-29.975-33.086v33.086H350.342z"/>
		<path fill="#4A4A4A" d="M421.931,113.874V40.221h10.374v73.653H421.931z"/>
		<path fill="#4A4A4A" d="M453.008,113.874V36.508l54.98,55.745V40.221h10.429v76.219l-54.98-55.581v53.015H453.008z"/>
		<path fill="#4A4A4A" d="M596.23,43.524c5.933,3.439,10.592,8.135,13.977,14.086c3.386,5.951,5.078,12.512,5.078,19.683
			c0,7.098-1.692,13.577-5.078,19.437c-3.385,5.861-8.071,10.483-14.059,13.868c-5.988,3.385-12.622,5.078-19.901,5.078
			c-6.807,0-13.131-1.72-18.973-5.16c-5.842-3.439-10.482-8.108-13.923-14.004c-3.439-5.896-5.159-12.303-5.159-19.219
			c0-7.17,1.692-13.722,5.078-19.655c3.385-5.969,8.007-10.665,13.867-14.086c5.824-3.458,12.267-5.187,19.328-5.187
			C583.709,38.365,590.297,40.084,596.23,43.524z M562.953,52.369c-4.133,2.53-7.408,5.979-9.828,10.346
			c-2.421,4.368-3.631,9.155-3.631,14.359c0,5.169,1.237,9.937,3.713,14.305c2.402,4.405,5.678,7.899,9.828,10.483
			c4.149,2.548,8.626,3.822,13.431,3.822c5.06,0,9.664-1.273,13.813-3.822c4.149-2.547,7.415-6.024,9.8-10.428
			c2.384-4.404,3.577-9.263,3.577-14.578c0-5.168-1.212-9.918-3.631-14.25c-2.421-4.332-5.716-7.753-9.883-10.265
			c-4.168-2.512-8.727-3.767-13.677-3.767C571.588,48.575,567.084,49.839,562.953,52.369z"/>
		<path fill="#4A4A4A" d="M409.792,175.374v-36.827h5.269v14.224h16.598v-14.224h5.269v36.827h-5.269v-18.072h-16.598v18.072
			H409.792z"/>
		<path fill="#4A4A4A" d="M449.201,175.374L467,136.69l17.335,38.684h-5.924l-4.014-9.5h-15.396l-4.067,9.5H449.201z
			 M460.557,161.751h12.148l-6.033-14.386L460.557,161.751z"/>
		<path fill="#4A4A4A" d="M520.167,163.698c0,2.528-0.556,4.762-1.665,6.697c-1.11,1.937-2.666,3.438-4.668,4.501
			c-2.003,1.063-4.305,1.596-6.906,1.596c-1.984,0-3.786-0.299-5.405-0.899c-1.621-0.618-3.013-1.492-4.177-2.619
			c-1.184-1.146-2.085-2.5-2.703-4.064c-0.619-1.582-0.928-3.319-0.928-5.211v-25.151h5.269v24.358c0,2.654,0.71,4.718,2.129,6.191
			c1.438,1.455,3.448,2.183,6.033,2.183c2.438,0,4.341-0.731,5.706-2.196c1.364-1.464,2.047-3.523,2.047-6.178v-24.358h5.269
			V163.698z"/>
		<path fill="#4A4A4A" d="M535.881,166.992c2.493,2.931,5.195,4.396,8.107,4.396c1.183,0,2.28-0.265,3.289-0.793
			c1.012-0.526,1.816-1.256,2.417-2.185c0.601-0.928,0.9-1.965,0.9-3.111c0-2.365-1.492-4.149-4.477-5.351l-4.587-1.911
			c-1.419-0.546-2.634-1.133-3.645-1.761c-1.009-0.628-1.852-1.342-2.524-2.142c-0.674-0.802-1.17-1.667-1.487-2.595
			c-0.319-0.929-0.479-1.983-0.479-3.167c0-2.129,0.45-3.994,1.352-5.595c0.9-1.603,2.175-2.844,3.822-3.728
			c1.646-0.882,3.562-1.324,5.746-1.324c1.911,0,3.612,0.347,5.104,1.038c1.511,0.691,3.112,1.855,4.805,3.493l-3.412,3.822
			c-1.528-1.42-2.671-2.334-3.427-2.743c-0.755-0.409-1.732-0.613-2.934-0.613c-1.676,0-3.03,0.449-4.068,1.351
			c-1.037,0.9-1.556,2.106-1.556,3.617c0,1.128,0.317,2.084,0.955,2.865c0.637,0.784,1.433,1.42,2.39,1.911
			c0.954,0.491,2.119,0.983,3.494,1.475c1.374,0.491,2.343,0.864,2.907,1.12c2.62,1.055,4.504,2.356,5.65,3.902
			c1.146,1.529,1.72,3.44,1.72,5.733c0,2.184-0.514,4.149-1.542,5.896s-2.471,3.112-4.327,4.095s-3.958,1.475-6.306,1.475
			c-2.293,0-4.359-0.441-6.197-1.324c-1.839-0.882-3.604-2.251-5.296-4.107L535.881,166.992z"/>
	</g>
</g>
</svg>
